<svg width="500" height="140" viewBox="0 0 500 140" fill="none" xmlns="http://www.w3.org/2000/svg">
<g clip-path="url(#clip0)">
<rect width="500" height="140" rx="10" fill="#0D0C31"/>
<path d="M198.218 25C209.936 25 219.435 34.3616 219.435 45.9096C219.435 57.4577 209.936 66.8192 198.218 66.8192C186.499 66.8192 177 57.4577 177 45.9096C177 34.3616 186.499 25 198.218 25Z" fill="#F73B95"/>
<path d="M198.268 29.0825C207.754 29.0825 215.444 36.6609 215.444 46.0093C215.444 55.3578 207.754 62.9361 198.268 62.9361C188.782 62.9361 181.092 55.3578 181.092 46.0093C181.092 36.6609 188.782 29.0825 198.268 29.0825Z" fill="#BD399C"/>
<path d="M198.268 33.5625C205.243 33.5625 210.897 39.1348 210.897 46.0088C210.897 52.8826 205.243 58.4549 198.268 58.4549C191.293 58.4549 185.639 52.8826 185.639 46.0088C185.639 39.1348 191.293 33.5625 198.268 33.5625Z" fill="#93388E"/>
<path d="M198.167 37.3467C202.91 37.3467 206.755 41.1358 206.755 45.8101C206.755 50.4841 202.91 54.2733 198.167 54.2733C193.424 54.2733 189.579 50.4841 189.579 45.8101C189.579 41.1358 193.424 37.3467 198.167 37.3467Z" fill="#6030A2"/>
<path d="M241.718 57.1752H251.247C255.639 57.1752 258.954 56.0749 261.149 53.8331C263.387 51.5915 264.505 48.9829 264.505 45.926C264.505 42.8692 263.387 40.2199 261.149 37.9782C258.954 35.7366 255.639 34.6361 251.247 34.6361H241.718V57.1752ZM260.155 45.926C260.155 48.1269 259.409 50.0019 257.918 51.5506C256.468 53.0586 254.23 53.8331 251.247 53.8331H245.944V37.9782H251.247C254.23 37.9782 256.468 38.7527 257.918 40.2607C259.409 41.8095 260.155 43.6844 260.155 45.926ZM267.903 47.8825C267.903 53.5478 271.549 57.5828 277.888 57.5828C282.113 57.5828 285.511 55.5856 287.002 51.8359H282.321C281.285 53.4255 279.835 54.2407 277.888 54.2407C274.656 54.2407 272.584 52.2028 272.211 49.0236H287.334V47.8825C287.334 42.2986 283.522 38.182 277.639 38.182C271.714 38.182 267.903 42.1763 267.903 47.8825ZM282.983 46.3336H272.253C272.709 43.5213 274.532 41.5242 277.639 41.5242C280.664 41.5242 282.528 43.4806 282.983 46.3336ZM296.987 50.2872V41.6464H301.752V38.5896H296.987V34.2285H292.844V38.5896H289.778V41.6464H292.844V50.2872C292.844 53.018 293.424 54.852 294.626 55.8303C295.827 56.8083 297.526 57.2974 299.722 57.2974C300.426 57.2974 301.047 57.2568 301.586 57.1345L302.373 56.9714V53.7515L301.586 53.8331C301.047 53.9147 300.426 53.9553 299.722 53.9553C297.484 53.9553 296.987 52.8142 296.987 50.2872ZM314.761 38.3043C311.985 38.3043 309.831 38.8749 308.339 40.0569C306.806 41.2389 306.061 42.6654 306.061 44.3366H310.287C310.287 42.3801 312.524 41.6464 314.761 41.6464C317.578 41.6464 319.318 42.6246 319.318 45.1924V46.3336H314.222C309.209 46.3336 305.315 47.5971 305.315 51.7544C305.315 55.5856 308.298 57.5828 312.731 57.5828C315.59 57.5828 317.62 56.8899 318.821 55.5041L319.401 54.8113C319.401 55.5856 319.733 56.7676 319.857 57.1752H324V56.8492L323.71 55.9525C323.544 55.3411 323.462 54.4038 323.462 53.0995V45.926C323.462 40.4645 320.313 38.3043 314.761 38.3043ZM319.318 49.0643C319.318 52.7733 317.413 54.6889 313.808 54.6889C311.447 54.6889 309.541 53.9147 309.541 51.9582C309.541 49.7165 311.612 49.0643 314.222 49.0236L319.318 49.0643Z" fill="white"/>
<path d="M32.0878 90.132H41.4328V92.022H34.1038V96.684H40.9288V98.574H34.1038V105H32.0878V90.132ZM43.6634 95.046H45.5534V96.579H45.5954C45.7214 96.313 45.8894 96.075 46.0994 95.865C46.3094 95.641 46.5404 95.452 46.7924 95.298C47.0584 95.144 47.3454 95.025 47.6534 94.941C47.9614 94.843 48.2694 94.794 48.5774 94.794C48.8854 94.794 49.1654 94.836 49.4174 94.92L49.3334 96.957C49.1794 96.915 49.0254 96.88 48.8714 96.852C48.7174 96.824 48.5634 96.81 48.4094 96.81C47.4854 96.81 46.7784 97.069 46.2884 97.587C45.7984 98.105 45.5534 98.91 45.5534 100.002V105H43.6634V95.046ZM52.4947 100.716C52.4947 101.15 52.5857 101.549 52.7677 101.913C52.9637 102.263 53.2157 102.564 53.5237 102.816C53.8317 103.068 54.1887 103.264 54.5947 103.404C55.0007 103.544 55.4207 103.614 55.8547 103.614C56.4427 103.614 56.9537 103.481 57.3877 103.215C57.8217 102.935 58.2207 102.571 58.5847 102.123L60.0127 103.215C58.9627 104.573 57.4927 105.252 55.6027 105.252C54.8187 105.252 54.1047 105.119 53.4607 104.853C52.8307 104.587 52.2917 104.223 51.8437 103.761C51.4097 103.285 51.0737 102.732 50.8357 102.102C50.5977 101.458 50.4787 100.765 50.4787 100.023C50.4787 99.281 50.6047 98.595 50.8567 97.965C51.1227 97.321 51.4797 96.768 51.9277 96.306C52.3897 95.83 52.9357 95.459 53.5657 95.193C54.1957 94.927 54.8817 94.794 55.6237 94.794C56.5057 94.794 57.2477 94.948 57.8497 95.256C58.4657 95.564 58.9697 95.97 59.3617 96.474C59.7537 96.964 60.0337 97.524 60.2017 98.154C60.3837 98.77 60.4747 99.4 60.4747 100.044V100.716H52.4947ZM58.4587 99.204C58.4447 98.784 58.3747 98.399 58.2487 98.049C58.1367 97.699 57.9617 97.398 57.7237 97.146C57.4857 96.88 57.1847 96.677 56.8207 96.537C56.4707 96.383 56.0577 96.306 55.5817 96.306C55.1197 96.306 54.6927 96.397 54.3007 96.579C53.9227 96.747 53.6007 96.971 53.3347 97.251C53.0687 97.531 52.8587 97.846 52.7047 98.196C52.5647 98.532 52.4947 98.868 52.4947 99.204H58.4587ZM64.1636 100.716C64.1636 101.15 64.2546 101.549 64.4366 101.913C64.6326 102.263 64.8846 102.564 65.1926 102.816C65.5006 103.068 65.8576 103.264 66.2636 103.404C66.6696 103.544 67.0896 103.614 67.5236 103.614C68.1116 103.614 68.6226 103.481 69.0566 103.215C69.4906 102.935 69.8896 102.571 70.2536 102.123L71.6816 103.215C70.6316 104.573 69.1616 105.252 67.2716 105.252C66.4876 105.252 65.7736 105.119 65.1296 104.853C64.4996 104.587 63.9606 104.223 63.5126 103.761C63.0786 103.285 62.7426 102.732 62.5046 102.102C62.2666 101.458 62.1476 100.765 62.1476 100.023C62.1476 99.281 62.2736 98.595 62.5256 97.965C62.7916 97.321 63.1486 96.768 63.5966 96.306C64.0586 95.83 64.6046 95.459 65.2346 95.193C65.8646 94.927 66.5506 94.794 67.2926 94.794C68.1746 94.794 68.9166 94.948 69.5186 95.256C70.1346 95.564 70.6386 95.97 71.0306 96.474C71.4226 96.964 71.7026 97.524 71.8706 98.154C72.0526 98.77 72.1436 99.4 72.1436 100.044V100.716H64.1636ZM70.1276 99.204C70.1136 98.784 70.0436 98.399 69.9176 98.049C69.8056 97.699 69.6306 97.398 69.3926 97.146C69.1546 96.88 68.8536 96.677 68.4896 96.537C68.1396 96.383 67.7266 96.306 67.2506 96.306C66.7886 96.306 66.3616 96.397 65.9696 96.579C65.5916 96.747 65.2696 96.971 65.0036 97.251C64.7376 97.531 64.5276 97.846 64.3736 98.196C64.2336 98.532 64.1636 98.868 64.1636 99.204H70.1276ZM85.3943 90.132H87.2213L93.5843 105H91.2323L89.7413 101.325H82.6643L81.1943 105H78.8423L85.3943 90.132ZM89.0063 99.561L86.2343 92.736H86.1923L83.3783 99.561H89.0063ZM95.5184 90.132H100.747C101.699 90.132 102.483 90.265 103.099 90.531C103.715 90.783 104.198 91.112 104.548 91.518C104.912 91.91 105.164 92.358 105.304 92.862C105.444 93.352 105.514 93.828 105.514 94.29C105.514 94.752 105.444 95.235 105.304 95.739C105.164 96.229 104.912 96.677 104.548 97.083C104.198 97.475 103.715 97.804 103.099 98.07C102.483 98.322 101.699 98.448 100.747 98.448H97.5344V105H95.5184V90.132ZM97.5344 96.684H100.18C100.572 96.684 100.957 96.656 101.335 96.6C101.727 96.53 102.07 96.411 102.364 96.243C102.672 96.075 102.917 95.837 103.099 95.529C103.281 95.207 103.372 94.794 103.372 94.29C103.372 93.786 103.281 93.38 103.099 93.072C102.917 92.75 102.672 92.505 102.364 92.337C102.07 92.169 101.727 92.057 101.335 92.001C100.957 91.931 100.572 91.896 100.18 91.896H97.5344V96.684ZM107.967 90.132H109.983V105H107.967V90.132ZM119.173 89.124H121.063V96.579H121.105C121.343 96.047 121.756 95.62 122.344 95.298C122.932 94.962 123.611 94.794 124.381 94.794C124.857 94.794 125.312 94.871 125.746 95.025C126.194 95.165 126.579 95.389 126.901 95.697C127.237 96.005 127.503 96.404 127.699 96.894C127.895 97.37 127.993 97.937 127.993 98.595V105H126.103V99.12C126.103 98.658 126.04 98.266 125.914 97.944C125.788 97.608 125.62 97.342 125.41 97.146C125.2 96.936 124.955 96.789 124.675 96.705C124.409 96.607 124.129 96.558 123.835 96.558C123.443 96.558 123.079 96.621 122.743 96.747C122.407 96.873 122.113 97.076 121.861 97.356C121.609 97.622 121.413 97.965 121.273 98.385C121.133 98.805 121.063 99.302 121.063 99.876V105H119.173V89.124ZM132.375 100.023C132.375 100.527 132.452 100.996 132.606 101.43C132.76 101.85 132.977 102.214 133.257 102.522C133.537 102.816 133.88 103.054 134.286 103.236C134.692 103.404 135.147 103.488 135.651 103.488C136.155 103.488 136.61 103.404 137.016 103.236C137.422 103.054 137.765 102.816 138.045 102.522C138.325 102.214 138.542 101.85 138.696 101.43C138.85 100.996 138.927 100.527 138.927 100.023C138.927 99.519 138.85 99.057 138.696 98.637C138.542 98.203 138.325 97.839 138.045 97.545C137.765 97.237 137.422 96.999 137.016 96.831C136.61 96.649 136.155 96.558 135.651 96.558C135.147 96.558 134.692 96.649 134.286 96.831C133.88 96.999 133.537 97.237 133.257 97.545C132.977 97.839 132.76 98.203 132.606 98.637C132.452 99.057 132.375 99.519 132.375 100.023ZM130.359 100.023C130.359 99.295 130.492 98.616 130.758 97.986C131.038 97.356 131.416 96.803 131.892 96.327C132.368 95.851 132.928 95.48 133.572 95.214C134.216 94.934 134.909 94.794 135.651 94.794C136.393 94.794 137.086 94.934 137.73 95.214C138.374 95.48 138.934 95.851 139.41 96.327C139.886 96.803 140.257 97.356 140.523 97.986C140.803 98.616 140.943 99.295 140.943 100.023C140.943 100.751 140.803 101.437 140.523 102.081C140.257 102.711 139.886 103.264 139.41 103.74C138.934 104.202 138.374 104.573 137.73 104.853C137.086 105.119 136.393 105.252 135.651 105.252C134.909 105.252 134.216 105.119 133.572 104.853C132.928 104.573 132.368 104.202 131.892 103.74C131.416 103.264 131.038 102.711 130.758 102.081C130.492 101.437 130.359 100.751 130.359 100.023ZM148.603 97.545C148.379 97.265 148.099 97.034 147.763 96.852C147.441 96.656 147.042 96.558 146.566 96.558C146.118 96.558 145.726 96.656 145.39 96.852C145.068 97.034 144.907 97.307 144.907 97.671C144.907 97.965 144.998 98.203 145.18 98.385C145.376 98.567 145.6 98.714 145.852 98.826C146.118 98.938 146.398 99.022 146.692 99.078C146.986 99.134 147.238 99.183 147.448 99.225C147.854 99.323 148.232 99.442 148.582 99.582C148.946 99.722 149.254 99.904 149.506 100.128C149.772 100.352 149.975 100.625 150.115 100.947C150.269 101.269 150.346 101.661 150.346 102.123C150.346 102.683 150.227 103.166 149.989 103.572C149.751 103.964 149.443 104.286 149.065 104.538C148.687 104.79 148.253 104.972 147.763 105.084C147.287 105.196 146.804 105.252 146.314 105.252C145.488 105.252 144.76 105.126 144.13 104.874C143.514 104.622 142.961 104.16 142.471 103.488L143.899 102.312C144.207 102.62 144.55 102.893 144.928 103.131C145.306 103.369 145.768 103.488 146.314 103.488C146.552 103.488 146.79 103.467 147.028 103.425C147.28 103.369 147.497 103.292 147.679 103.194C147.875 103.082 148.029 102.949 148.141 102.795C148.267 102.627 148.33 102.438 148.33 102.228C148.33 101.948 148.239 101.717 148.057 101.535C147.889 101.353 147.679 101.213 147.427 101.115C147.189 101.003 146.93 100.919 146.65 100.863C146.384 100.793 146.146 100.737 145.936 100.695C145.53 100.597 145.145 100.485 144.781 100.359C144.417 100.233 144.095 100.065 143.815 99.855C143.535 99.645 143.311 99.379 143.143 99.057C142.975 98.735 142.891 98.336 142.891 97.86C142.891 97.342 142.996 96.894 143.206 96.516C143.43 96.124 143.717 95.802 144.067 95.55C144.431 95.298 144.837 95.109 145.285 94.983C145.747 94.857 146.209 94.794 146.671 94.794C147.343 94.794 147.987 94.92 148.603 95.172C149.219 95.424 149.709 95.844 150.073 96.432L148.603 97.545ZM157.976 96.684H155.267V101.199C155.267 101.479 155.274 101.759 155.288 102.039C155.302 102.305 155.351 102.55 155.435 102.774C155.533 102.984 155.673 103.159 155.855 103.299C156.051 103.425 156.331 103.488 156.695 103.488C156.919 103.488 157.15 103.467 157.388 103.425C157.626 103.383 157.843 103.306 158.039 103.194V104.916C157.815 105.042 157.521 105.126 157.157 105.168C156.807 105.224 156.534 105.252 156.338 105.252C155.61 105.252 155.043 105.154 154.637 104.958C154.245 104.748 153.951 104.482 153.755 104.16C153.573 103.838 153.461 103.481 153.419 103.089C153.391 102.683 153.377 102.277 153.377 101.871V96.684H151.193V95.046H153.377V92.253H155.267V95.046H157.976V96.684ZM160.561 95.046H162.451V105H160.561V95.046ZM160.12 91.476C160.12 91.098 160.253 90.776 160.519 90.51C160.799 90.23 161.128 90.09 161.506 90.09C161.884 90.09 162.206 90.23 162.472 90.51C162.752 90.776 162.892 91.098 162.892 91.476C162.892 91.854 162.752 92.183 162.472 92.463C162.206 92.729 161.884 92.862 161.506 92.862C161.128 92.862 160.799 92.729 160.519 92.463C160.253 92.183 160.12 91.854 160.12 91.476ZM165.459 95.046H167.349V96.579H167.391C167.629 96.047 168.042 95.62 168.63 95.298C169.218 94.962 169.897 94.794 170.667 94.794C171.143 94.794 171.598 94.871 172.032 95.025C172.48 95.165 172.865 95.389 173.187 95.697C173.523 96.005 173.789 96.404 173.985 96.894C174.181 97.37 174.279 97.937 174.279 98.595V105H172.389V99.12C172.389 98.658 172.326 98.266 172.2 97.944C172.074 97.608 171.906 97.342 171.696 97.146C171.486 96.936 171.241 96.789 170.961 96.705C170.695 96.607 170.415 96.558 170.121 96.558C169.729 96.558 169.365 96.621 169.029 96.747C168.693 96.873 168.399 97.076 168.147 97.356C167.895 97.622 167.699 97.965 167.559 98.385C167.419 98.805 167.349 99.302 167.349 99.876V105H165.459V95.046ZM187.103 104.916C187.103 105.672 186.97 106.358 186.704 106.974C186.452 107.604 186.088 108.143 185.612 108.591C185.136 109.053 184.562 109.41 183.89 109.662C183.218 109.914 182.476 110.04 181.664 110.04C180.712 110.04 179.837 109.907 179.039 109.641C178.255 109.375 177.506 108.913 176.792 108.255L178.073 106.659C178.563 107.191 179.095 107.59 179.669 107.856C180.243 108.136 180.894 108.276 181.622 108.276C182.322 108.276 182.903 108.171 183.365 107.961C183.827 107.765 184.191 107.506 184.457 107.184C184.737 106.862 184.933 106.491 185.045 106.071C185.157 105.665 185.213 105.252 185.213 104.832V103.362H185.15C184.786 103.964 184.289 104.412 183.659 104.706C183.043 104.986 182.392 105.126 181.706 105.126C180.978 105.126 180.299 105 179.669 104.748C179.053 104.482 178.521 104.125 178.073 103.677C177.625 103.215 177.275 102.676 177.023 102.06C176.771 101.43 176.645 100.751 176.645 100.023C176.645 99.295 176.764 98.616 177.002 97.986C177.24 97.342 177.576 96.782 178.01 96.306C178.458 95.83 178.99 95.459 179.606 95.193C180.236 94.927 180.936 94.794 181.706 94.794C182.378 94.794 183.029 94.941 183.659 95.235C184.303 95.529 184.807 95.942 185.171 96.474H185.213V95.046H187.103V104.916ZM181.937 96.558C181.433 96.558 180.978 96.649 180.572 96.831C180.166 96.999 179.823 97.237 179.543 97.545C179.263 97.839 179.046 98.203 178.892 98.637C178.738 99.057 178.661 99.519 178.661 100.023C178.661 101.031 178.955 101.843 179.543 102.459C180.131 103.061 180.929 103.362 181.937 103.362C182.945 103.362 183.743 103.061 184.331 102.459C184.919 101.843 185.213 101.031 185.213 100.023C185.213 99.519 185.136 99.057 184.982 98.637C184.828 98.203 184.611 97.839 184.331 97.545C184.051 97.237 183.708 96.999 183.302 96.831C182.896 96.649 182.441 96.558 181.937 96.558ZM191.268 107.772H189.546L190.995 102.606H193.032L191.268 107.772ZM201.803 90.132H206.99C208.04 90.132 208.957 90.251 209.741 90.489C210.539 90.727 211.225 91.049 211.799 91.455C212.387 91.847 212.87 92.302 213.248 92.82C213.64 93.338 213.948 93.87 214.172 94.416C214.396 94.962 214.557 95.508 214.655 96.054C214.753 96.6 214.802 97.104 214.802 97.566C214.802 98.518 214.627 99.442 214.277 100.338C213.927 101.22 213.409 102.011 212.723 102.711C212.037 103.397 211.183 103.95 210.161 104.37C209.153 104.79 207.984 105 206.654 105H201.803V90.132ZM203.819 103.11H206.36C207.214 103.11 208.019 102.998 208.775 102.774C209.545 102.536 210.217 102.186 210.791 101.724C211.365 101.262 211.82 100.688 212.156 100.002C212.492 99.302 212.66 98.49 212.66 97.566C212.66 97.09 212.583 96.537 212.429 95.907C212.275 95.263 211.981 94.654 211.547 94.08C211.127 93.506 210.539 93.023 209.783 92.631C209.027 92.225 208.047 92.022 206.843 92.022H203.819V103.11ZM217.263 96.264C217.795 95.774 218.411 95.41 219.111 95.172C219.811 94.92 220.511 94.794 221.211 94.794C221.939 94.794 222.562 94.885 223.08 95.067C223.612 95.249 224.046 95.494 224.382 95.802C224.718 96.11 224.963 96.467 225.117 96.873C225.285 97.265 225.369 97.678 225.369 98.112V103.194C225.369 103.544 225.376 103.866 225.39 104.16C225.404 104.454 225.425 104.734 225.453 105H223.773C223.731 104.496 223.71 103.992 223.71 103.488H223.668C223.248 104.132 222.751 104.587 222.177 104.853C221.603 105.119 220.938 105.252 220.182 105.252C219.72 105.252 219.279 105.189 218.859 105.063C218.439 104.937 218.068 104.748 217.746 104.496C217.438 104.244 217.193 103.936 217.011 103.572C216.829 103.194 216.738 102.76 216.738 102.27C216.738 101.626 216.878 101.087 217.158 100.653C217.452 100.219 217.844 99.869 218.334 99.603C218.838 99.323 219.419 99.127 220.077 99.015C220.749 98.889 221.463 98.826 222.219 98.826H223.605V98.406C223.605 98.154 223.556 97.902 223.458 97.65C223.36 97.398 223.213 97.174 223.017 96.978C222.821 96.768 222.576 96.607 222.282 96.495C221.988 96.369 221.638 96.306 221.232 96.306C220.868 96.306 220.546 96.341 220.266 96.411C220 96.481 219.755 96.572 219.531 96.684C219.307 96.782 219.104 96.901 218.922 97.041C218.74 97.181 218.565 97.314 218.397 97.44L217.263 96.264ZM222.597 100.212C222.149 100.212 221.687 100.24 221.211 100.296C220.749 100.338 220.322 100.429 219.93 100.569C219.552 100.709 219.237 100.905 218.985 101.157C218.747 101.409 218.628 101.731 218.628 102.123C218.628 102.697 218.817 103.11 219.195 103.362C219.587 103.614 220.112 103.74 220.77 103.74C221.288 103.74 221.729 103.656 222.093 103.488C222.457 103.306 222.751 103.075 222.975 102.795C223.199 102.515 223.36 102.207 223.458 101.871C223.556 101.521 223.605 101.178 223.605 100.842V100.212H222.597ZM233.445 96.684H230.736V101.199C230.736 101.479 230.743 101.759 230.757 102.039C230.771 102.305 230.82 102.55 230.904 102.774C231.002 102.984 231.142 103.159 231.324 103.299C231.52 103.425 231.8 103.488 232.164 103.488C232.388 103.488 232.619 103.467 232.857 103.425C233.095 103.383 233.312 103.306 233.508 103.194V104.916C233.284 105.042 232.99 105.126 232.626 105.168C232.276 105.224 232.003 105.252 231.807 105.252C231.079 105.252 230.512 105.154 230.106 104.958C229.714 104.748 229.42 104.482 229.224 104.16C229.042 103.838 228.93 103.481 228.888 103.089C228.86 102.683 228.846 102.277 228.846 101.871V96.684H226.662V95.046H228.846V92.253H230.736V95.046H233.445V96.684ZM235.925 96.264C236.457 95.774 237.073 95.41 237.773 95.172C238.473 94.92 239.173 94.794 239.873 94.794C240.601 94.794 241.224 94.885 241.742 95.067C242.274 95.249 242.708 95.494 243.044 95.802C243.38 96.11 243.625 96.467 243.779 96.873C243.947 97.265 244.031 97.678 244.031 98.112V103.194C244.031 103.544 244.038 103.866 244.052 104.16C244.066 104.454 244.087 104.734 244.115 105H242.435C242.393 104.496 242.372 103.992 242.372 103.488H242.33C241.91 104.132 241.413 104.587 240.839 104.853C240.265 105.119 239.6 105.252 238.844 105.252C238.382 105.252 237.941 105.189 237.521 105.063C237.101 104.937 236.73 104.748 236.408 104.496C236.1 104.244 235.855 103.936 235.673 103.572C235.491 103.194 235.4 102.76 235.4 102.27C235.4 101.626 235.54 101.087 235.82 100.653C236.114 100.219 236.506 99.869 236.996 99.603C237.5 99.323 238.081 99.127 238.739 99.015C239.411 98.889 240.125 98.826 240.881 98.826H242.267V98.406C242.267 98.154 242.218 97.902 242.12 97.65C242.022 97.398 241.875 97.174 241.679 96.978C241.483 96.768 241.238 96.607 240.944 96.495C240.65 96.369 240.3 96.306 239.894 96.306C239.53 96.306 239.208 96.341 238.928 96.411C238.662 96.481 238.417 96.572 238.193 96.684C237.969 96.782 237.766 96.901 237.584 97.041C237.402 97.181 237.227 97.314 237.059 97.44L235.925 96.264ZM241.259 100.212C240.811 100.212 240.349 100.24 239.873 100.296C239.411 100.338 238.984 100.429 238.592 100.569C238.214 100.709 237.899 100.905 237.647 101.157C237.409 101.409 237.29 101.731 237.29 102.123C237.29 102.697 237.479 103.11 237.857 103.362C238.249 103.614 238.774 103.74 239.432 103.74C239.95 103.74 240.391 103.656 240.755 103.488C241.119 103.306 241.413 103.075 241.637 102.795C241.861 102.515 242.022 102.207 242.12 101.871C242.218 101.521 242.267 101.178 242.267 100.842V100.212H241.259ZM246.773 89.124H248.663V96.474H248.705C249.041 95.956 249.524 95.55 250.154 95.256C250.784 94.948 251.456 94.794 252.17 94.794C252.94 94.794 253.633 94.927 254.249 95.193C254.879 95.459 255.411 95.83 255.845 96.306C256.293 96.768 256.636 97.321 256.874 97.965C257.112 98.595 257.231 99.281 257.231 100.023C257.231 100.765 257.112 101.451 256.874 102.081C256.636 102.711 256.293 103.264 255.845 103.74C255.411 104.216 254.879 104.587 254.249 104.853C253.633 105.119 252.94 105.252 252.17 105.252C251.498 105.252 250.84 105.105 250.196 104.811C249.566 104.517 249.069 104.104 248.705 103.572H248.663V105H246.773V89.124ZM251.939 103.488C252.443 103.488 252.898 103.404 253.304 103.236C253.71 103.054 254.053 102.816 254.333 102.522C254.613 102.214 254.83 101.85 254.984 101.43C255.138 100.996 255.215 100.527 255.215 100.023C255.215 99.519 255.138 99.057 254.984 98.637C254.83 98.203 254.613 97.839 254.333 97.545C254.053 97.237 253.71 96.999 253.304 96.831C252.898 96.649 252.443 96.558 251.939 96.558C251.435 96.558 250.98 96.649 250.574 96.831C250.168 96.999 249.825 97.237 249.545 97.545C249.265 97.839 249.048 98.203 248.894 98.637C248.74 99.057 248.663 99.519 248.663 100.023C248.663 100.527 248.74 100.996 248.894 101.43C249.048 101.85 249.265 102.214 249.545 102.522C249.825 102.816 250.168 103.054 250.574 103.236C250.98 103.404 251.435 103.488 251.939 103.488ZM259.653 96.264C260.185 95.774 260.801 95.41 261.501 95.172C262.201 94.92 262.901 94.794 263.601 94.794C264.329 94.794 264.952 94.885 265.47 95.067C266.002 95.249 266.436 95.494 266.772 95.802C267.108 96.11 267.353 96.467 267.507 96.873C267.675 97.265 267.759 97.678 267.759 98.112V103.194C267.759 103.544 267.766 103.866 267.78 104.16C267.794 104.454 267.815 104.734 267.843 105H266.163C266.121 104.496 266.1 103.992 266.1 103.488H266.058C265.638 104.132 265.141 104.587 264.567 104.853C263.993 105.119 263.328 105.252 262.572 105.252C262.11 105.252 261.669 105.189 261.249 105.063C260.829 104.937 260.458 104.748 260.136 104.496C259.828 104.244 259.583 103.936 259.401 103.572C259.219 103.194 259.128 102.76 259.128 102.27C259.128 101.626 259.268 101.087 259.548 100.653C259.842 100.219 260.234 99.869 260.724 99.603C261.228 99.323 261.809 99.127 262.467 99.015C263.139 98.889 263.853 98.826 264.609 98.826H265.995V98.406C265.995 98.154 265.946 97.902 265.848 97.65C265.75 97.398 265.603 97.174 265.407 96.978C265.211 96.768 264.966 96.607 264.672 96.495C264.378 96.369 264.028 96.306 263.622 96.306C263.258 96.306 262.936 96.341 262.656 96.411C262.39 96.481 262.145 96.572 261.921 96.684C261.697 96.782 261.494 96.901 261.312 97.041C261.13 97.181 260.955 97.314 260.787 97.44L259.653 96.264ZM264.987 100.212C264.539 100.212 264.077 100.24 263.601 100.296C263.139 100.338 262.712 100.429 262.32 100.569C261.942 100.709 261.627 100.905 261.375 101.157C261.137 101.409 261.018 101.731 261.018 102.123C261.018 102.697 261.207 103.11 261.585 103.362C261.977 103.614 262.502 103.74 263.16 103.74C263.678 103.74 264.119 103.656 264.483 103.488C264.847 103.306 265.141 103.075 265.365 102.795C265.589 102.515 265.75 102.207 265.848 101.871C265.946 101.521 265.995 101.178 265.995 100.842V100.212H264.987ZM275.792 97.545C275.568 97.265 275.288 97.034 274.952 96.852C274.63 96.656 274.231 96.558 273.755 96.558C273.307 96.558 272.915 96.656 272.579 96.852C272.257 97.034 272.096 97.307 272.096 97.671C272.096 97.965 272.187 98.203 272.369 98.385C272.565 98.567 272.789 98.714 273.041 98.826C273.307 98.938 273.587 99.022 273.881 99.078C274.175 99.134 274.427 99.183 274.637 99.225C275.043 99.323 275.421 99.442 275.771 99.582C276.135 99.722 276.443 99.904 276.695 100.128C276.961 100.352 277.164 100.625 277.304 100.947C277.458 101.269 277.535 101.661 277.535 102.123C277.535 102.683 277.416 103.166 277.178 103.572C276.94 103.964 276.632 104.286 276.254 104.538C275.876 104.79 275.442 104.972 274.952 105.084C274.476 105.196 273.993 105.252 273.503 105.252C272.677 105.252 271.949 105.126 271.319 104.874C270.703 104.622 270.15 104.16 269.66 103.488L271.088 102.312C271.396 102.62 271.739 102.893 272.117 103.131C272.495 103.369 272.957 103.488 273.503 103.488C273.741 103.488 273.979 103.467 274.217 103.425C274.469 103.369 274.686 103.292 274.868 103.194C275.064 103.082 275.218 102.949 275.33 102.795C275.456 102.627 275.519 102.438 275.519 102.228C275.519 101.948 275.428 101.717 275.246 101.535C275.078 101.353 274.868 101.213 274.616 101.115C274.378 101.003 274.119 100.919 273.839 100.863C273.573 100.793 273.335 100.737 273.125 100.695C272.719 100.597 272.334 100.485 271.97 100.359C271.606 100.233 271.284 100.065 271.004 99.855C270.724 99.645 270.5 99.379 270.332 99.057C270.164 98.735 270.08 98.336 270.08 97.86C270.08 97.342 270.185 96.894 270.395 96.516C270.619 96.124 270.906 95.802 271.256 95.55C271.62 95.298 272.026 95.109 272.474 94.983C272.936 94.857 273.398 94.794 273.86 94.794C274.532 94.794 275.176 94.92 275.792 95.172C276.408 95.424 276.898 95.844 277.262 96.432L275.792 97.545ZM281.259 100.716C281.259 101.15 281.35 101.549 281.532 101.913C281.728 102.263 281.98 102.564 282.288 102.816C282.596 103.068 282.953 103.264 283.359 103.404C283.765 103.544 284.185 103.614 284.619 103.614C285.207 103.614 285.718 103.481 286.152 103.215C286.586 102.935 286.985 102.571 287.349 102.123L288.777 103.215C287.727 104.573 286.257 105.252 284.367 105.252C283.583 105.252 282.869 105.119 282.225 104.853C281.595 104.587 281.056 104.223 280.608 103.761C280.174 103.285 279.838 102.732 279.6 102.102C279.362 101.458 279.243 100.765 279.243 100.023C279.243 99.281 279.369 98.595 279.621 97.965C279.887 97.321 280.244 96.768 280.692 96.306C281.154 95.83 281.7 95.459 282.33 95.193C282.96 94.927 283.646 94.794 284.388 94.794C285.27 94.794 286.012 94.948 286.614 95.256C287.23 95.564 287.734 95.97 288.126 96.474C288.518 96.964 288.798 97.524 288.966 98.154C289.148 98.77 289.239 99.4 289.239 100.044V100.716H281.259ZM287.223 99.204C287.209 98.784 287.139 98.399 287.013 98.049C286.901 97.699 286.726 97.398 286.488 97.146C286.25 96.88 285.949 96.677 285.585 96.537C285.235 96.383 284.822 96.306 284.346 96.306C283.884 96.306 283.457 96.397 283.065 96.579C282.687 96.747 282.365 96.971 282.099 97.251C281.833 97.531 281.623 97.846 281.469 98.196C281.329 98.532 281.259 98.868 281.259 99.204H287.223ZM296.792 97.545C296.568 97.265 296.288 97.034 295.952 96.852C295.63 96.656 295.231 96.558 294.755 96.558C294.307 96.558 293.915 96.656 293.579 96.852C293.257 97.034 293.096 97.307 293.096 97.671C293.096 97.965 293.187 98.203 293.369 98.385C293.565 98.567 293.789 98.714 294.041 98.826C294.307 98.938 294.587 99.022 294.881 99.078C295.175 99.134 295.427 99.183 295.637 99.225C296.043 99.323 296.421 99.442 296.771 99.582C297.135 99.722 297.443 99.904 297.695 100.128C297.961 100.352 298.164 100.625 298.304 100.947C298.458 101.269 298.535 101.661 298.535 102.123C298.535 102.683 298.416 103.166 298.178 103.572C297.94 103.964 297.632 104.286 297.254 104.538C296.876 104.79 296.442 104.972 295.952 105.084C295.476 105.196 294.993 105.252 294.503 105.252C293.677 105.252 292.949 105.126 292.319 104.874C291.703 104.622 291.15 104.16 290.66 103.488L292.088 102.312C292.396 102.62 292.739 102.893 293.117 103.131C293.495 103.369 293.957 103.488 294.503 103.488C294.741 103.488 294.979 103.467 295.217 103.425C295.469 103.369 295.686 103.292 295.868 103.194C296.064 103.082 296.218 102.949 296.33 102.795C296.456 102.627 296.519 102.438 296.519 102.228C296.519 101.948 296.428 101.717 296.246 101.535C296.078 101.353 295.868 101.213 295.616 101.115C295.378 101.003 295.119 100.919 294.839 100.863C294.573 100.793 294.335 100.737 294.125 100.695C293.719 100.597 293.334 100.485 292.97 100.359C292.606 100.233 292.284 100.065 292.004 99.855C291.724 99.645 291.5 99.379 291.332 99.057C291.164 98.735 291.08 98.336 291.08 97.86C291.08 97.342 291.185 96.894 291.395 96.516C291.619 96.124 291.906 95.802 292.256 95.55C292.62 95.298 293.026 95.109 293.474 94.983C293.936 94.857 294.398 94.794 294.86 94.794C295.532 94.794 296.176 94.92 296.792 95.172C297.408 95.424 297.898 95.844 298.262 96.432L296.792 97.545ZM320.2 105H317.491L315.664 103.026C315.034 103.782 314.362 104.363 313.648 104.769C312.948 105.175 312.101 105.378 311.107 105.378C310.267 105.378 309.539 105.252 308.923 105C308.307 104.762 307.796 104.44 307.39 104.034C306.998 103.628 306.704 103.173 306.508 102.669C306.326 102.151 306.235 101.619 306.235 101.073C306.235 100.555 306.326 100.086 306.508 99.666C306.69 99.232 306.935 98.84 307.243 98.49C307.551 98.14 307.908 97.825 308.314 97.545C308.734 97.265 309.168 97.02 309.616 96.81C309.14 96.306 308.727 95.788 308.377 95.256C308.041 94.724 307.873 94.094 307.873 93.366C307.873 92.806 307.978 92.309 308.188 91.875C308.412 91.441 308.706 91.077 309.07 90.783C309.434 90.489 309.854 90.265 310.33 90.111C310.806 89.957 311.31 89.88 311.842 89.88C312.36 89.88 312.85 89.95 313.312 90.09C313.788 90.23 314.201 90.44 314.551 90.72C314.901 91 315.174 91.35 315.37 91.77C315.58 92.19 315.685 92.68 315.685 93.24C315.685 93.702 315.594 94.129 315.412 94.521C315.23 94.899 314.992 95.249 314.698 95.571C314.404 95.879 314.075 96.159 313.711 96.411C313.347 96.649 312.976 96.866 312.598 97.062L315.538 100.128L317.407 97.083H319.696L316.819 101.535L320.2 105ZM313.669 93.24C313.669 92.75 313.501 92.365 313.165 92.085C312.829 91.791 312.395 91.644 311.863 91.644C311.331 91.644 310.869 91.798 310.477 92.106C310.085 92.4 309.889 92.827 309.889 93.387C309.889 93.639 309.931 93.877 310.015 94.101C310.113 94.325 310.232 94.542 310.372 94.752C310.526 94.962 310.687 95.158 310.855 95.34C311.023 95.522 311.191 95.697 311.359 95.865C311.611 95.725 311.87 95.571 312.136 95.403C312.416 95.235 312.668 95.046 312.892 94.836C313.116 94.626 313.298 94.395 313.438 94.143C313.592 93.877 313.669 93.576 313.669 93.24ZM310.876 97.986C310.582 98.154 310.281 98.336 309.973 98.532C309.679 98.728 309.413 98.945 309.175 99.183C308.937 99.421 308.741 99.694 308.587 100.002C308.447 100.296 308.377 100.632 308.377 101.01C308.377 101.374 308.454 101.717 308.608 102.039C308.762 102.347 308.972 102.62 309.238 102.858C309.504 103.096 309.798 103.285 310.12 103.425C310.456 103.551 310.806 103.614 311.17 103.614C311.534 103.614 311.87 103.558 312.178 103.446C312.5 103.334 312.794 103.194 313.06 103.026C313.34 102.844 313.592 102.641 313.816 102.417C314.054 102.193 314.271 101.962 314.467 101.724L310.876 97.986ZM338.512 93.345C338.092 92.799 337.56 92.379 336.916 92.085C336.272 91.791 335.607 91.644 334.921 91.644C334.081 91.644 333.318 91.805 332.632 92.127C331.96 92.435 331.379 92.862 330.889 93.408C330.413 93.954 330.042 94.598 329.776 95.34C329.51 96.068 329.377 96.852 329.377 97.692C329.377 98.476 329.503 99.218 329.755 99.918C330.007 100.618 330.371 101.234 330.847 101.766C331.323 102.298 331.904 102.718 332.59 103.026C333.276 103.334 334.053 103.488 334.921 103.488C335.775 103.488 336.524 103.313 337.168 102.963C337.812 102.613 338.358 102.123 338.806 101.493L340.507 102.774C340.395 102.928 340.199 103.152 339.919 103.446C339.639 103.726 339.268 104.013 338.806 104.307C338.344 104.587 337.784 104.832 337.126 105.042C336.482 105.266 335.733 105.378 334.879 105.378C333.703 105.378 332.639 105.154 331.687 104.706C330.749 104.258 329.944 103.67 329.272 102.942C328.614 102.214 328.11 101.395 327.76 100.485C327.41 99.561 327.235 98.63 327.235 97.692C327.235 96.544 327.424 95.487 327.802 94.521C328.18 93.541 328.705 92.701 329.377 92.001C330.063 91.287 330.882 90.734 331.834 90.342C332.786 89.95 333.836 89.754 334.984 89.754C335.964 89.754 336.923 89.943 337.861 90.321C338.813 90.699 339.59 91.28 340.192 92.064L338.512 93.345ZM342.609 89.124H344.499V105H342.609V89.124ZM349.04 100.023C349.04 100.527 349.117 100.996 349.271 101.43C349.425 101.85 349.642 102.214 349.922 102.522C350.202 102.816 350.545 103.054 350.951 103.236C351.357 103.404 351.812 103.488 352.316 103.488C352.82 103.488 353.275 103.404 353.681 103.236C354.087 103.054 354.43 102.816 354.71 102.522C354.99 102.214 355.207 101.85 355.361 101.43C355.515 100.996 355.592 100.527 355.592 100.023C355.592 99.519 355.515 99.057 355.361 98.637C355.207 98.203 354.99 97.839 354.71 97.545C354.43 97.237 354.087 96.999 353.681 96.831C353.275 96.649 352.82 96.558 352.316 96.558C351.812 96.558 351.357 96.649 350.951 96.831C350.545 96.999 350.202 97.237 349.922 97.545C349.642 97.839 349.425 98.203 349.271 98.637C349.117 99.057 349.04 99.519 349.04 100.023ZM347.024 100.023C347.024 99.295 347.157 98.616 347.423 97.986C347.703 97.356 348.081 96.803 348.557 96.327C349.033 95.851 349.593 95.48 350.237 95.214C350.881 94.934 351.574 94.794 352.316 94.794C353.058 94.794 353.751 94.934 354.395 95.214C355.039 95.48 355.599 95.851 356.075 96.327C356.551 96.803 356.922 97.356 357.188 97.986C357.468 98.616 357.608 99.295 357.608 100.023C357.608 100.751 357.468 101.437 357.188 102.081C356.922 102.711 356.551 103.264 356.075 103.74C355.599 104.202 355.039 104.573 354.395 104.853C353.751 105.119 353.058 105.252 352.316 105.252C351.574 105.252 350.881 105.119 350.237 104.853C349.593 104.573 349.033 104.202 348.557 103.74C348.081 103.264 347.703 102.711 347.423 102.081C347.157 101.437 347.024 100.751 347.024 100.023ZM368.796 105H366.906V103.467H366.864C366.626 103.999 366.213 104.433 365.625 104.769C365.037 105.091 364.358 105.252 363.588 105.252C363.098 105.252 362.636 105.175 362.202 105.021C361.768 104.881 361.383 104.657 361.047 104.349C360.725 104.041 360.466 103.649 360.27 103.173C360.074 102.683 359.976 102.109 359.976 101.451V95.046H361.866V100.926C361.866 101.388 361.929 101.787 362.055 102.123C362.181 102.445 362.349 102.711 362.559 102.921C362.769 103.117 363.007 103.264 363.273 103.362C363.553 103.446 363.84 103.488 364.134 103.488C364.526 103.488 364.89 103.425 365.226 103.299C365.562 103.173 365.856 102.977 366.108 102.711C366.36 102.431 366.556 102.081 366.696 101.661C366.836 101.241 366.906 100.744 366.906 100.17V95.046H368.796V105ZM381.62 105H379.73V103.572H379.688C379.324 104.104 378.82 104.517 378.176 104.811C377.546 105.105 376.895 105.252 376.223 105.252C375.453 105.252 374.753 105.119 374.123 104.853C373.507 104.587 372.975 104.216 372.527 103.74C372.093 103.264 371.757 102.711 371.519 102.081C371.281 101.451 371.162 100.765 371.162 100.023C371.162 99.281 371.281 98.595 371.519 97.965C371.757 97.321 372.093 96.768 372.527 96.306C372.975 95.83 373.507 95.459 374.123 95.193C374.753 94.927 375.453 94.794 376.223 94.794C376.937 94.794 377.609 94.948 378.239 95.256C378.869 95.55 379.352 95.956 379.688 96.474H379.73V89.124H381.62V105ZM376.454 103.488C376.958 103.488 377.413 103.404 377.819 103.236C378.225 103.054 378.568 102.816 378.848 102.522C379.128 102.214 379.345 101.85 379.499 101.43C379.653 100.996 379.73 100.527 379.73 100.023C379.73 99.519 379.653 99.057 379.499 98.637C379.345 98.203 379.128 97.839 378.848 97.545C378.568 97.237 378.225 96.999 377.819 96.831C377.413 96.649 376.958 96.558 376.454 96.558C375.95 96.558 375.495 96.649 375.089 96.831C374.683 96.999 374.34 97.237 374.06 97.545C373.78 97.839 373.563 98.203 373.409 98.637C373.255 99.057 373.178 99.519 373.178 100.023C373.178 100.527 373.255 100.996 373.409 101.43C373.563 101.85 373.78 102.214 374.06 102.522C374.34 102.816 374.683 103.054 375.089 103.236C375.495 103.404 375.95 103.488 376.454 103.488ZM391.251 101.892C391.615 102.438 392.077 102.844 392.637 103.11C393.211 103.362 393.799 103.488 394.401 103.488C394.737 103.488 395.08 103.439 395.43 103.341C395.78 103.229 396.095 103.068 396.375 102.858C396.669 102.648 396.907 102.389 397.089 102.081C397.271 101.773 397.362 101.416 397.362 101.01C397.362 100.436 397.18 100.002 396.816 99.708C396.452 99.4 395.997 99.148 395.451 98.952C394.919 98.742 394.331 98.546 393.687 98.364C393.057 98.168 392.469 97.902 391.923 97.566C391.391 97.23 390.943 96.782 390.579 96.222C390.215 95.648 390.033 94.878 390.033 93.912C390.033 93.478 390.124 93.016 390.306 92.526C390.502 92.036 390.803 91.588 391.209 91.182C391.615 90.776 392.133 90.44 392.763 90.174C393.407 89.894 394.177 89.754 395.073 89.754C395.885 89.754 396.662 89.866 397.404 90.09C398.146 90.314 398.797 90.769 399.357 91.455L397.719 92.946C397.467 92.554 397.11 92.239 396.648 92.001C396.186 91.763 395.661 91.644 395.073 91.644C394.513 91.644 394.044 91.721 393.666 91.875C393.302 92.015 393.008 92.204 392.784 92.442C392.56 92.666 392.399 92.911 392.301 93.177C392.217 93.443 392.175 93.688 392.175 93.912C392.175 94.542 392.357 95.025 392.721 95.361C393.085 95.697 393.533 95.97 394.065 96.18C394.611 96.39 395.199 96.579 395.829 96.747C396.473 96.915 397.061 97.153 397.593 97.461C398.139 97.755 398.594 98.161 398.958 98.679C399.322 99.183 399.504 99.883 399.504 100.779C399.504 101.493 399.364 102.137 399.084 102.711C398.818 103.285 398.454 103.768 397.992 104.16C397.53 104.552 396.984 104.853 396.354 105.063C395.724 105.273 395.052 105.378 394.338 105.378C393.386 105.378 392.483 105.21 391.629 104.874C390.775 104.538 390.096 104.02 389.592 103.32L391.251 101.892ZM407.33 96.684H404.621V101.199C404.621 101.479 404.628 101.759 404.642 102.039C404.656 102.305 404.705 102.55 404.789 102.774C404.887 102.984 405.027 103.159 405.209 103.299C405.405 103.425 405.685 103.488 406.049 103.488C406.273 103.488 406.504 103.467 406.742 103.425C406.98 103.383 407.197 103.306 407.393 103.194V104.916C407.169 105.042 406.875 105.126 406.511 105.168C406.161 105.224 405.888 105.252 405.692 105.252C404.964 105.252 404.397 105.154 403.991 104.958C403.599 104.748 403.305 104.482 403.109 104.16C402.927 103.838 402.815 103.481 402.773 103.089C402.745 102.683 402.731 102.277 402.731 101.871V96.684H400.547V95.046H402.731V92.253H404.621V95.046H407.33V96.684ZM411.302 100.023C411.302 100.527 411.379 100.996 411.533 101.43C411.687 101.85 411.904 102.214 412.184 102.522C412.464 102.816 412.807 103.054 413.213 103.236C413.619 103.404 414.074 103.488 414.578 103.488C415.082 103.488 415.537 103.404 415.943 103.236C416.349 103.054 416.692 102.816 416.972 102.522C417.252 102.214 417.469 101.85 417.623 101.43C417.777 100.996 417.854 100.527 417.854 100.023C417.854 99.519 417.777 99.057 417.623 98.637C417.469 98.203 417.252 97.839 416.972 97.545C416.692 97.237 416.349 96.999 415.943 96.831C415.537 96.649 415.082 96.558 414.578 96.558C414.074 96.558 413.619 96.649 413.213 96.831C412.807 96.999 412.464 97.237 412.184 97.545C411.904 97.839 411.687 98.203 411.533 98.637C411.379 99.057 411.302 99.519 411.302 100.023ZM409.286 100.023C409.286 99.295 409.419 98.616 409.685 97.986C409.965 97.356 410.343 96.803 410.819 96.327C411.295 95.851 411.855 95.48 412.499 95.214C413.143 94.934 413.836 94.794 414.578 94.794C415.32 94.794 416.013 94.934 416.657 95.214C417.301 95.48 417.861 95.851 418.337 96.327C418.813 96.803 419.184 97.356 419.45 97.986C419.73 98.616 419.87 99.295 419.87 100.023C419.87 100.751 419.73 101.437 419.45 102.081C419.184 102.711 418.813 103.264 418.337 103.74C417.861 104.202 417.301 104.573 416.657 104.853C416.013 105.119 415.32 105.252 414.578 105.252C413.836 105.252 413.143 105.119 412.499 104.853C411.855 104.573 411.295 104.202 410.819 103.74C410.343 103.264 409.965 102.711 409.685 102.081C409.419 101.437 409.286 100.751 409.286 100.023ZM422.238 95.046H424.128V96.579H424.17C424.296 96.313 424.464 96.075 424.674 95.865C424.884 95.641 425.115 95.452 425.367 95.298C425.633 95.144 425.92 95.025 426.228 94.941C426.536 94.843 426.844 94.794 427.152 94.794C427.46 94.794 427.74 94.836 427.992 94.92L427.908 96.957C427.754 96.915 427.6 96.88 427.446 96.852C427.292 96.824 427.138 96.81 426.984 96.81C426.06 96.81 425.353 97.069 424.863 97.587C424.373 98.105 424.128 98.91 424.128 100.002V105H422.238V95.046ZM430.052 96.264C430.584 95.774 431.2 95.41 431.9 95.172C432.6 94.92 433.3 94.794 434 94.794C434.728 94.794 435.351 94.885 435.869 95.067C436.401 95.249 436.835 95.494 437.171 95.802C437.507 96.11 437.752 96.467 437.906 96.873C438.074 97.265 438.158 97.678 438.158 98.112V103.194C438.158 103.544 438.165 103.866 438.179 104.16C438.193 104.454 438.214 104.734 438.242 105H436.562C436.52 104.496 436.499 103.992 436.499 103.488H436.457C436.037 104.132 435.54 104.587 434.966 104.853C434.392 105.119 433.727 105.252 432.971 105.252C432.509 105.252 432.068 105.189 431.648 105.063C431.228 104.937 430.857 104.748 430.535 104.496C430.227 104.244 429.982 103.936 429.8 103.572C429.618 103.194 429.527 102.76 429.527 102.27C429.527 101.626 429.667 101.087 429.947 100.653C430.241 100.219 430.633 99.869 431.123 99.603C431.627 99.323 432.208 99.127 432.866 99.015C433.538 98.889 434.252 98.826 435.008 98.826H436.394V98.406C436.394 98.154 436.345 97.902 436.247 97.65C436.149 97.398 436.002 97.174 435.806 96.978C435.61 96.768 435.365 96.607 435.071 96.495C434.777 96.369 434.427 96.306 434.021 96.306C433.657 96.306 433.335 96.341 433.055 96.411C432.789 96.481 432.544 96.572 432.32 96.684C432.096 96.782 431.893 96.901 431.711 97.041C431.529 97.181 431.354 97.314 431.186 97.44L430.052 96.264ZM435.386 100.212C434.938 100.212 434.476 100.24 434 100.296C433.538 100.338 433.111 100.429 432.719 100.569C432.341 100.709 432.026 100.905 431.774 101.157C431.536 101.409 431.417 101.731 431.417 102.123C431.417 102.697 431.606 103.11 431.984 103.362C432.376 103.614 432.901 103.74 433.559 103.74C434.077 103.74 434.518 103.656 434.882 103.488C435.246 103.306 435.54 103.075 435.764 102.795C435.988 102.515 436.149 102.207 436.247 101.871C436.345 101.521 436.394 101.178 436.394 100.842V100.212H435.386ZM450.875 104.916C450.875 105.672 450.742 106.358 450.476 106.974C450.224 107.604 449.86 108.143 449.384 108.591C448.908 109.053 448.334 109.41 447.662 109.662C446.99 109.914 446.248 110.04 445.436 110.04C444.484 110.04 443.609 109.907 442.811 109.641C442.027 109.375 441.278 108.913 440.564 108.255L441.845 106.659C442.335 107.191 442.867 107.59 443.441 107.856C444.015 108.136 444.666 108.276 445.394 108.276C446.094 108.276 446.675 108.171 447.137 107.961C447.599 107.765 447.963 107.506 448.229 107.184C448.509 106.862 448.705 106.491 448.817 106.071C448.929 105.665 448.985 105.252 448.985 104.832V103.362H448.922C448.558 103.964 448.061 104.412 447.431 104.706C446.815 104.986 446.164 105.126 445.478 105.126C444.75 105.126 444.071 105 443.441 104.748C442.825 104.482 442.293 104.125 441.845 103.677C441.397 103.215 441.047 102.676 440.795 102.06C440.543 101.43 440.417 100.751 440.417 100.023C440.417 99.295 440.536 98.616 440.774 97.986C441.012 97.342 441.348 96.782 441.782 96.306C442.23 95.83 442.762 95.459 443.378 95.193C444.008 94.927 444.708 94.794 445.478 94.794C446.15 94.794 446.801 94.941 447.431 95.235C448.075 95.529 448.579 95.942 448.943 96.474H448.985V95.046H450.875V104.916ZM445.709 96.558C445.205 96.558 444.75 96.649 444.344 96.831C443.938 96.999 443.595 97.237 443.315 97.545C443.035 97.839 442.818 98.203 442.664 98.637C442.51 99.057 442.433 99.519 442.433 100.023C442.433 101.031 442.727 101.843 443.315 102.459C443.903 103.061 444.701 103.362 445.709 103.362C446.717 103.362 447.515 103.061 448.103 102.459C448.691 101.843 448.985 101.031 448.985 100.023C448.985 99.519 448.908 99.057 448.754 98.637C448.6 98.203 448.383 97.839 448.103 97.545C447.823 97.237 447.48 96.999 447.074 96.831C446.668 96.649 446.213 96.558 445.709 96.558ZM455.166 100.716C455.166 101.15 455.257 101.549 455.439 101.913C455.635 102.263 455.887 102.564 456.195 102.816C456.503 103.068 456.86 103.264 457.266 103.404C457.672 103.544 458.092 103.614 458.526 103.614C459.114 103.614 459.625 103.481 460.059 103.215C460.493 102.935 460.892 102.571 461.256 102.123L462.684 103.215C461.634 104.573 460.164 105.252 458.274 105.252C457.49 105.252 456.776 105.119 456.132 104.853C455.502 104.587 454.963 104.223 454.515 103.761C454.081 103.285 453.745 102.732 453.507 102.102C453.269 101.458 453.15 100.765 453.15 100.023C453.15 99.281 453.276 98.595 453.528 97.965C453.794 97.321 454.151 96.768 454.599 96.306C455.061 95.83 455.607 95.459 456.237 95.193C456.867 94.927 457.553 94.794 458.295 94.794C459.177 94.794 459.919 94.948 460.521 95.256C461.137 95.564 461.641 95.97 462.033 96.474C462.425 96.964 462.705 97.524 462.873 98.154C463.055 98.77 463.146 99.4 463.146 100.044V100.716H455.166ZM461.13 99.204C461.116 98.784 461.046 98.399 460.92 98.049C460.808 97.699 460.633 97.398 460.395 97.146C460.157 96.88 459.856 96.677 459.492 96.537C459.142 96.383 458.729 96.306 458.253 96.306C457.791 96.306 457.364 96.397 456.972 96.579C456.594 96.747 456.272 96.971 456.006 97.251C455.74 97.531 455.53 97.846 455.376 98.196C455.236 98.532 455.166 98.868 455.166 99.204H461.13ZM466.898 105.126C466.52 105.126 466.191 104.993 465.911 104.727C465.645 104.447 465.512 104.118 465.512 103.74C465.512 103.362 465.645 103.04 465.911 102.774C466.191 102.494 466.52 102.354 466.898 102.354C467.276 102.354 467.598 102.494 467.864 102.774C468.144 103.04 468.284 103.362 468.284 103.74C468.284 104.118 468.144 104.447 467.864 104.727C467.598 104.993 467.276 105.126 466.898 105.126Z" fill="white"/>
</g>
<defs>
<clipPath id="clip0">
<rect width="500" height="140" rx="10" fill="white"/>
</clipPath>
</defs>
</svg>
